<svg width="150" height="160" viewBox="0 0 150 160" xmlns="http://www.w3.org/2000/svg">
    <rect width="100%" height="100%" fill="#fff" />
    
  <line x1="25" y1="130" x2="135" y2="130" stroke="#000" stroke-width="1.5" />
  <line x1="25" y1="20" x2="25" y2="130" stroke="#000" stroke-width="1.5" />
  <!-- Grid --><line x1="45" y1="20" x2="45" y2="130" stroke="#eee" /><line x1="25" y1="110" x2="135" y2="110" stroke="#eee" /><text x="45" y="145" font-size="9" text-anchor="middle">1</text><text x="15" y="113" font-size="9" text-anchor="end">1</text><line x1="65" y1="20" x2="65" y2="130" stroke="#eee" /><line x1="25" y1="90" x2="135" y2="90" stroke="#eee" /><text x="65" y="145" font-size="9" text-anchor="middle">2</text><text x="15" y="93" font-size="9" text-anchor="end">2</text><line x1="85" y1="20" x2="85" y2="130" stroke="#eee" /><line x1="25" y1="70" x2="135" y2="70" stroke="#eee" /><text x="85" y="145" font-size="9" text-anchor="middle">3</text><text x="15" y="73" font-size="9" text-anchor="end">3</text><line x1="105" y1="20" x2="105" y2="130" stroke="#eee" /><line x1="25" y1="50" x2="135" y2="50" stroke="#eee" /><text x="105" y="145" font-size="9" text-anchor="middle">4</text><text x="15" y="53" font-size="9" text-anchor="end">4</text><line x1="125" y1="20" x2="125" y2="130" stroke="#eee" /><line x1="25" y1="30" x2="135" y2="30" stroke="#eee" /><text x="125" y="145" font-size="9" text-anchor="middle">5</text><text x="15" y="33" font-size="9" text-anchor="end">5</text><circle cx="125" cy="50" r="3.5" fill="#000" /><circle cx="65" cy="90" r="3.5" fill="#000" /><circle cx="105" cy="70" r="3.5" fill="#000" /><circle cx="85" cy="70" r="3.5" fill="#000" /><circle cx="105" cy="30" r="3.5" fill="#000" /><circle cx="125" cy="30" r="3.5" fill="#000" /><circle cx="105" cy="70" r="3.5" fill="#000" /><circle cx="65" cy="70" r="3.5" fill="#000" />
  </svg>